<mxfile host="app.diagrams.net" agent="Mozilla/5.0 (Windows NT 10.0; Win64; x64) AppleWebKit/537.36 (KHTML, like Gecko) Chrome/133.0.0.0 Safari/537.36 OPR/118.0.0.0" version="27.0.2">
  <diagram id="C5RBs43oDa-KdzZeNtuy" name="Page-1">
    <mxGraphModel dx="962" dy="516" grid="1" gridSize="10" guides="1" tooltips="1" connect="1" arrows="1" fold="1" page="1" pageScale="1" pageWidth="1000" pageHeight="1169" background="#ffffff" math="0" shadow="0">
      <root>
        <mxCell id="WIyWlLk6GJQsqaUBKTNV-0" />
        <mxCell id="WIyWlLk6GJQsqaUBKTNV-1" parent="WIyWlLk6GJQsqaUBKTNV-0" />
        <mxCell id="8GCRxeCxm9QawgFhnsp0-0" value="Chamado" style="swimlane;fontStyle=1;align=center;verticalAlign=top;childLayout=stackLayout;horizontal=1;startSize=30;horizontalStack=0;resizeParent=1;resizeParentMax=0;resizeLast=0;collapsible=1;marginBottom=0;whiteSpace=wrap;html=1;" parent="WIyWlLk6GJQsqaUBKTNV-1" vertex="1">
          <mxGeometry x="529" y="56" width="180" height="404" as="geometry" />
        </mxCell>
        <mxCell id="8GCRxeCxm9QawgFhnsp0-1" value="+ id: int (PK)&lt;br/&gt;    + solicitante: string&lt;br/&gt;    + dataAbertura: datetime&lt;br/&gt;    + descricao: string&lt;br/&gt;    + status: enum {Aberto, EmAndamento, Pendente, Resolvido, Fechado}&lt;br/&gt;    + prioridade: enum {Baixa, Media, Alta}&lt;br/&gt;    + tecnicoResponsavel: string&lt;br/&gt;    + dataFechamento: datetime&lt;br/&gt;    + solucao: string&lt;br/&gt;    + categoria: string" style="text;strokeColor=none;fillColor=none;align=left;verticalAlign=top;spacingLeft=4;spacingRight=4;overflow=hidden;rotatable=0;points=[[0,0.5],[1,0.5]];portConstraint=eastwest;whiteSpace=wrap;html=1;" parent="8GCRxeCxm9QawgFhnsp0-0" vertex="1">
          <mxGeometry y="30" width="180" height="194" as="geometry" />
        </mxCell>
        <mxCell id="8GCRxeCxm9QawgFhnsp0-2" value="" style="line;strokeWidth=1;fillColor=none;align=left;verticalAlign=middle;spacingTop=-1;spacingLeft=3;spacingRight=3;rotatable=0;labelPosition=right;points=[];portConstraint=eastwest;strokeColor=inherit;" parent="8GCRxeCxm9QawgFhnsp0-0" vertex="1">
          <mxGeometry y="224" width="180" height="20" as="geometry" />
        </mxCell>
        <mxCell id="8GCRxeCxm9QawgFhnsp0-3" value="+ atualizarStatus(novoStatus: enum): void&lt;br/&gt;    + atribuirTecnico(tecnico: Tecnico): void&lt;br/&gt;    + adicionarSolucao(solucao: string): void&lt;br/&gt;    + fecharChamado(): void&lt;br/&gt;    + adicionarHistorico(evento: string, usuario: string): void" style="text;strokeColor=none;fillColor=none;align=left;verticalAlign=top;spacingLeft=4;spacingRight=4;overflow=hidden;rotatable=0;points=[[0,0.5],[1,0.5]];portConstraint=eastwest;whiteSpace=wrap;html=1;" parent="8GCRxeCxm9QawgFhnsp0-0" vertex="1">
          <mxGeometry y="244" width="180" height="160" as="geometry" />
        </mxCell>
        <mxCell id="8GCRxeCxm9QawgFhnsp0-4" value="Solicitante" style="swimlane;fontStyle=1;align=center;verticalAlign=top;childLayout=stackLayout;horizontal=1;startSize=26;horizontalStack=0;resizeParent=1;resizeParentMax=0;resizeLast=0;collapsible=1;marginBottom=0;whiteSpace=wrap;html=1;" parent="WIyWlLk6GJQsqaUBKTNV-1" vertex="1">
          <mxGeometry x="805" y="56" width="160" height="180" as="geometry" />
        </mxCell>
        <mxCell id="8GCRxeCxm9QawgFhnsp0-5" value="+ id: int (PK)&lt;br/&gt;    + nome: string&lt;br/&gt;    + departamento: string&lt;br/&gt;    + email: string&lt;br/&gt;    + telefone: string&lt;div&gt;&lt;br/&gt;&lt;/div&gt;" style="text;strokeColor=none;fillColor=none;align=left;verticalAlign=top;spacingLeft=4;spacingRight=4;overflow=hidden;rotatable=0;points=[[0,0.5],[1,0.5]];portConstraint=eastwest;whiteSpace=wrap;html=1;" parent="8GCRxeCxm9QawgFhnsp0-4" vertex="1">
          <mxGeometry y="26" width="160" height="84" as="geometry" />
        </mxCell>
        <mxCell id="8GCRxeCxm9QawgFhnsp0-6" value="" style="line;strokeWidth=1;fillColor=none;align=left;verticalAlign=middle;spacingTop=-1;spacingLeft=3;spacingRight=3;rotatable=0;labelPosition=right;points=[];portConstraint=eastwest;strokeColor=inherit;" parent="8GCRxeCxm9QawgFhnsp0-4" vertex="1">
          <mxGeometry y="110" width="160" height="30" as="geometry" />
        </mxCell>
        <mxCell id="8GCRxeCxm9QawgFhnsp0-7" value="+ registrarChamado()&amp;nbsp;&lt;div&gt;+ acompanharChamado()&lt;/div&gt;" style="text;strokeColor=none;fillColor=none;align=left;verticalAlign=top;spacingLeft=4;spacingRight=4;overflow=hidden;rotatable=0;points=[[0,0.5],[1,0.5]];portConstraint=eastwest;whiteSpace=wrap;html=1;" parent="8GCRxeCxm9QawgFhnsp0-4" vertex="1">
          <mxGeometry y="140" width="160" height="40" as="geometry" />
        </mxCell>
        <mxCell id="8GCRxeCxm9QawgFhnsp0-9" style="rounded=0;orthogonalLoop=1;jettySize=auto;html=1;exitX=1.006;exitY=0.113;exitDx=0;exitDy=0;exitPerimeter=0;" parent="WIyWlLk6GJQsqaUBKTNV-1" edge="1">
          <mxGeometry relative="1" as="geometry">
            <mxPoint x="711.0799999999999" y="107.92200000000003" as="sourcePoint" />
            <mxPoint x="806" y="108" as="targetPoint" />
          </mxGeometry>
        </mxCell>
        <mxCell id="8GCRxeCxm9QawgFhnsp0-15" value="1" style="edgeLabel;html=1;align=center;verticalAlign=middle;resizable=0;points=[];" parent="8GCRxeCxm9QawgFhnsp0-9" vertex="1" connectable="0">
          <mxGeometry x="0.6262" y="-1" relative="1" as="geometry">
            <mxPoint y="-9" as="offset" />
          </mxGeometry>
        </mxCell>
        <mxCell id="8GCRxeCxm9QawgFhnsp0-56" value="1..*" style="edgeLabel;html=1;align=center;verticalAlign=middle;resizable=0;points=[];" parent="8GCRxeCxm9QawgFhnsp0-9" vertex="1" connectable="0">
          <mxGeometry x="-0.7078" y="1" relative="1" as="geometry">
            <mxPoint y="-9" as="offset" />
          </mxGeometry>
        </mxCell>
        <mxCell id="8GCRxeCxm9QawgFhnsp0-16" value="Tecnico" style="swimlane;fontStyle=1;align=center;verticalAlign=top;childLayout=stackLayout;horizontal=1;startSize=26;horizontalStack=0;resizeParent=1;resizeParentMax=0;resizeLast=0;collapsible=1;marginBottom=0;whiteSpace=wrap;html=1;" parent="WIyWlLk6GJQsqaUBKTNV-1" vertex="1">
          <mxGeometry x="310" y="340" width="160" height="170" as="geometry" />
        </mxCell>
        <mxCell id="8GCRxeCxm9QawgFhnsp0-17" value="+ id: int (PK)&lt;br/&gt;    + nome: string&lt;br/&gt;    + especialidade: string&lt;br/&gt;    + email: string&lt;br/&gt;    + telefone: string" style="text;strokeColor=none;fillColor=none;align=left;verticalAlign=top;spacingLeft=4;spacingRight=4;overflow=hidden;rotatable=0;points=[[0,0.5],[1,0.5]];portConstraint=eastwest;whiteSpace=wrap;html=1;" parent="8GCRxeCxm9QawgFhnsp0-16" vertex="1">
          <mxGeometry y="26" width="160" height="84" as="geometry" />
        </mxCell>
        <mxCell id="8GCRxeCxm9QawgFhnsp0-18" value="" style="line;strokeWidth=1;fillColor=none;align=left;verticalAlign=middle;spacingTop=-1;spacingLeft=3;spacingRight=3;rotatable=0;labelPosition=right;points=[];portConstraint=eastwest;strokeColor=inherit;" parent="8GCRxeCxm9QawgFhnsp0-16" vertex="1">
          <mxGeometry y="110" width="160" height="10" as="geometry" />
        </mxCell>
        <mxCell id="8GCRxeCxm9QawgFhnsp0-19" value="+ receberChamado()&lt;br/&gt;    + atualizarStatusChamado()&lt;br/&gt;    + registrarSolucao()" style="text;strokeColor=none;fillColor=none;align=left;verticalAlign=top;spacingLeft=4;spacingRight=4;overflow=hidden;rotatable=0;points=[[0,0.5],[1,0.5]];portConstraint=eastwest;whiteSpace=wrap;html=1;" parent="8GCRxeCxm9QawgFhnsp0-16" vertex="1">
          <mxGeometry y="120" width="160" height="50" as="geometry" />
        </mxCell>
        <mxCell id="8GCRxeCxm9QawgFhnsp0-28" value="Categoria" style="swimlane;fontStyle=0;childLayout=stackLayout;horizontal=1;startSize=26;fillColor=none;horizontalStack=0;resizeParent=1;resizeParentMax=0;resizeLast=0;collapsible=1;marginBottom=0;whiteSpace=wrap;html=1;" parent="WIyWlLk6GJQsqaUBKTNV-1" vertex="1">
          <mxGeometry x="825" y="340" width="140" height="80" as="geometry" />
        </mxCell>
        <mxCell id="8GCRxeCxm9QawgFhnsp0-29" value="+ id: int (PK)&lt;br&gt;+ nome: string&lt;br&gt;+ descricao: string" style="text;strokeColor=none;fillColor=none;align=left;verticalAlign=top;spacingLeft=4;spacingRight=4;overflow=hidden;rotatable=0;points=[[0,0.5],[1,0.5]];portConstraint=eastwest;whiteSpace=wrap;html=1;" parent="8GCRxeCxm9QawgFhnsp0-28" vertex="1">
          <mxGeometry y="26" width="140" height="54" as="geometry" />
        </mxCell>
        <mxCell id="8GCRxeCxm9QawgFhnsp0-32" value="HistoricoChamados" style="swimlane;fontStyle=0;childLayout=stackLayout;horizontal=1;startSize=26;fillColor=none;horizontalStack=0;resizeParent=1;resizeParentMax=0;resizeLast=0;collapsible=1;marginBottom=0;whiteSpace=wrap;html=1;" parent="WIyWlLk6GJQsqaUBKTNV-1" vertex="1">
          <mxGeometry x="215" y="30" width="170" height="120" as="geometry" />
        </mxCell>
        <mxCell id="8GCRxeCxm9QawgFhnsp0-33" value="+ id: int (PK)&lt;br/&gt;    + chamadoId: int (FK)&lt;br/&gt;    + dataEvento: datetime&lt;br/&gt;    + descricaoEvento: string&lt;br/&gt;    + usuario: string" style="text;strokeColor=none;fillColor=none;align=left;verticalAlign=top;spacingLeft=4;spacingRight=4;overflow=hidden;rotatable=0;points=[[0,0.5],[1,0.5]];portConstraint=eastwest;whiteSpace=wrap;html=1;" parent="8GCRxeCxm9QawgFhnsp0-32" vertex="1">
          <mxGeometry y="26" width="170" height="94" as="geometry" />
        </mxCell>
        <mxCell id="8GCRxeCxm9QawgFhnsp0-40" value="Sugestao" style="swimlane;fontStyle=0;childLayout=stackLayout;horizontal=1;startSize=26;fillColor=none;horizontalStack=0;resizeParent=1;resizeParentMax=0;resizeLast=0;collapsible=1;marginBottom=0;whiteSpace=wrap;html=1;" parent="WIyWlLk6GJQsqaUBKTNV-1" vertex="1">
          <mxGeometry x="40" y="200" width="210" height="170" as="geometry" />
        </mxCell>
        <mxCell id="8GCRxeCxm9QawgFhnsp0-41" value="+ analisarChamado(chamado: Chamado): Sugestao&lt;br/&gt;    + sugerirSolucao(chamado: Chamado): string&lt;br/&gt;    + recomendarTecnico(chamado: Chamado): Tecnico&lt;br/&gt;    + treinarModelo(historico: List&amp;lt;HistoricoChamados&amp;gt;)" style="text;strokeColor=none;fillColor=none;align=left;verticalAlign=top;spacingLeft=4;spacingRight=4;overflow=hidden;rotatable=0;points=[[0,0.5],[1,0.5]];portConstraint=eastwest;whiteSpace=wrap;html=1;" parent="8GCRxeCxm9QawgFhnsp0-40" vertex="1">
          <mxGeometry y="26" width="210" height="144" as="geometry" />
        </mxCell>
        <mxCell id="8GCRxeCxm9QawgFhnsp0-44" style="rounded=0;orthogonalLoop=1;jettySize=auto;html=1;entryX=0.987;entryY=0.34;entryDx=0;entryDy=0;exitX=0.006;exitY=0.188;exitDx=0;exitDy=0;edgeStyle=entityRelationEdgeStyle;exitPerimeter=0;entryPerimeter=0;" parent="WIyWlLk6GJQsqaUBKTNV-1" source="8GCRxeCxm9QawgFhnsp0-3" target="8GCRxeCxm9QawgFhnsp0-17" edge="1">
          <mxGeometry relative="1" as="geometry">
            <mxPoint x="522" y="440" as="sourcePoint" />
            <mxPoint x="425.96000000000004" y="99.99600000000005" as="targetPoint" />
          </mxGeometry>
        </mxCell>
        <mxCell id="8GCRxeCxm9QawgFhnsp0-45" value="1" style="edgeLabel;html=1;align=center;verticalAlign=middle;resizable=0;points=[];" parent="8GCRxeCxm9QawgFhnsp0-44" vertex="1" connectable="0">
          <mxGeometry x="0.5898" relative="1" as="geometry">
            <mxPoint x="-13" y="14" as="offset" />
          </mxGeometry>
        </mxCell>
        <mxCell id="8GCRxeCxm9QawgFhnsp0-51" value="1..*" style="edgeLabel;html=1;align=center;verticalAlign=middle;resizable=0;points=[];" parent="8GCRxeCxm9QawgFhnsp0-44" vertex="1" connectable="0">
          <mxGeometry x="-0.6824" y="1" relative="1" as="geometry">
            <mxPoint x="11" y="-30" as="offset" />
          </mxGeometry>
        </mxCell>
        <mxCell id="8GCRxeCxm9QawgFhnsp0-47" style="edgeStyle=entityRelationEdgeStyle;rounded=0;orthogonalLoop=1;jettySize=auto;html=1;exitX=1.006;exitY=0.269;exitDx=0;exitDy=0;entryX=-0.014;entryY=0.389;entryDx=0;entryDy=0;entryPerimeter=0;exitPerimeter=0;" parent="WIyWlLk6GJQsqaUBKTNV-1" edge="1">
          <mxGeometry relative="1" as="geometry">
            <mxPoint x="711.0799999999999" y="343.03999999999996" as="sourcePoint" />
            <mxPoint x="824.04" y="387.006" as="targetPoint" />
          </mxGeometry>
        </mxCell>
        <mxCell id="8GCRxeCxm9QawgFhnsp0-48" value="1" style="edgeLabel;html=1;align=center;verticalAlign=middle;resizable=0;points=[];" parent="8GCRxeCxm9QawgFhnsp0-47" vertex="1" connectable="0">
          <mxGeometry x="0.7881" relative="1" as="geometry">
            <mxPoint y="-12" as="offset" />
          </mxGeometry>
        </mxCell>
        <mxCell id="8GCRxeCxm9QawgFhnsp0-52" value="1..*" style="edgeLabel;html=1;align=center;verticalAlign=middle;resizable=0;points=[];" parent="8GCRxeCxm9QawgFhnsp0-47" vertex="1" connectable="0">
          <mxGeometry x="-0.8654" y="1" relative="1" as="geometry">
            <mxPoint y="-11" as="offset" />
          </mxGeometry>
        </mxCell>
        <mxCell id="8GCRxeCxm9QawgFhnsp0-53" style="rounded=0;orthogonalLoop=1;jettySize=auto;html=1;entryX=0.994;entryY=0.404;entryDx=0;entryDy=0;entryPerimeter=0;edgeStyle=entityRelationEdgeStyle;exitX=-0.022;exitY=0.046;exitDx=0;exitDy=0;exitPerimeter=0;" parent="WIyWlLk6GJQsqaUBKTNV-1" source="8GCRxeCxm9QawgFhnsp0-1" target="8GCRxeCxm9QawgFhnsp0-33" edge="1">
          <mxGeometry relative="1" as="geometry" />
        </mxCell>
        <mxCell id="8GCRxeCxm9QawgFhnsp0-54" value="1..*" style="edgeLabel;html=1;align=center;verticalAlign=middle;resizable=0;points=[];" parent="8GCRxeCxm9QawgFhnsp0-53" vertex="1" connectable="0">
          <mxGeometry x="-0.8155" y="1" relative="1" as="geometry">
            <mxPoint y="-10" as="offset" />
          </mxGeometry>
        </mxCell>
        <mxCell id="8GCRxeCxm9QawgFhnsp0-55" value="1..*" style="edgeLabel;html=1;align=center;verticalAlign=middle;resizable=0;points=[];" parent="8GCRxeCxm9QawgFhnsp0-53" vertex="1" connectable="0">
          <mxGeometry x="0.7753" y="-1" relative="1" as="geometry">
            <mxPoint x="-4" y="-9" as="offset" />
          </mxGeometry>
        </mxCell>
        <mxCell id="8GCRxeCxm9QawgFhnsp0-65" style="edgeStyle=entityRelationEdgeStyle;rounded=0;orthogonalLoop=1;jettySize=auto;html=1;entryX=-0.025;entryY=0.345;entryDx=0;entryDy=0;entryPerimeter=0;elbow=vertical;exitX=1.01;exitY=0.378;exitDx=0;exitDy=0;exitPerimeter=0;" parent="WIyWlLk6GJQsqaUBKTNV-1" source="8GCRxeCxm9QawgFhnsp0-41" target="8GCRxeCxm9QawgFhnsp0-17" edge="1">
          <mxGeometry relative="1" as="geometry" />
        </mxCell>
        <mxCell id="8GCRxeCxm9QawgFhnsp0-66" value="1" style="edgeLabel;html=1;align=center;verticalAlign=middle;resizable=0;points=[];" parent="8GCRxeCxm9QawgFhnsp0-65" vertex="1" connectable="0">
          <mxGeometry x="0.6367" y="1" relative="1" as="geometry">
            <mxPoint x="12" y="22" as="offset" />
          </mxGeometry>
        </mxCell>
        <mxCell id="8GCRxeCxm9QawgFhnsp0-67" value="1..*" style="edgeLabel;html=1;align=center;verticalAlign=middle;resizable=0;points=[];" parent="8GCRxeCxm9QawgFhnsp0-65" vertex="1" connectable="0">
          <mxGeometry x="-0.7376" relative="1" as="geometry">
            <mxPoint x="-15" y="-21" as="offset" />
          </mxGeometry>
        </mxCell>
        <mxCell id="8GCRxeCxm9QawgFhnsp0-68" style="edgeStyle=entityRelationEdgeStyle;rounded=0;orthogonalLoop=1;jettySize=auto;html=1;elbow=vertical;entryX=0.995;entryY=0.103;entryDx=0;entryDy=0;entryPerimeter=0;exitX=0.008;exitY=0.602;exitDx=0;exitDy=0;exitPerimeter=0;" parent="WIyWlLk6GJQsqaUBKTNV-1" source="8GCRxeCxm9QawgFhnsp0-1" target="8GCRxeCxm9QawgFhnsp0-40" edge="1">
          <mxGeometry relative="1" as="geometry">
            <mxPoint x="705" y="430" as="sourcePoint" />
            <mxPoint x="478" y="500" as="targetPoint" />
            <Array as="points">
              <mxPoint x="705" y="460" />
              <mxPoint x="675" y="450" />
              <mxPoint x="665" y="480" />
            </Array>
          </mxGeometry>
        </mxCell>
        <mxCell id="8GCRxeCxm9QawgFhnsp0-69" value="1..*" style="edgeLabel;html=1;align=center;verticalAlign=middle;resizable=0;points=[];" parent="8GCRxeCxm9QawgFhnsp0-68" vertex="1" connectable="0">
          <mxGeometry x="0.7365" y="1" relative="1" as="geometry">
            <mxPoint x="-2" y="9" as="offset" />
          </mxGeometry>
        </mxCell>
        <mxCell id="8GCRxeCxm9QawgFhnsp0-70" value="1..*" style="edgeLabel;html=1;align=center;verticalAlign=middle;resizable=0;points=[];" parent="8GCRxeCxm9QawgFhnsp0-68" vertex="1" connectable="0">
          <mxGeometry x="-0.8559" relative="1" as="geometry">
            <mxPoint y="9" as="offset" />
          </mxGeometry>
        </mxCell>
      </root>
    </mxGraphModel>
  </diagram>
</mxfile>
